<svg xmlns="http://www.w3.org/2000/svg" width="19.095" height="19.095" viewBox="0 0 19.095 19.095">
  <g id="user" transform="translate(0.4 0.4)">
    <g id="Group_397" data-name="Group 397" transform="translate(0)">
      <path id="Path_453" data-name="Path 453" d="M15.616,11.827a9.113,9.113,0,0,0-3.476-2.18,5.289,5.289,0,1,0-5.984,0A9.162,9.162,0,0,0,0,18.3H1.429a7.718,7.718,0,0,1,15.437,0H18.3A9.088,9.088,0,0,0,15.616,11.827ZM9.148,9.148a3.859,3.859,0,1,1,3.859-3.859A3.864,3.864,0,0,1,9.148,9.148Z" transform="translate(0)" stroke="#000" stroke-width="0.8"/>
    </g>
  </g>
</svg>
